<svg width="774" height="610" viewBox="0 0 774 610" fill="none" xmlns="http://www.w3.org/2000/svg">
<ellipse cx="11.8576" cy="10" rx="11.8576" ry="10" fill="#D3D3D3"/>
<ellipse cx="81.003" cy="10" rx="11.8576" ry="10" fill="#D3D3D3"/>
<ellipse cx="150.148" cy="10" rx="11.8576" ry="10" fill="#D3D3D3"/>
<ellipse cx="219.294" cy="10" rx="11.8576" ry="10" fill="#D3D3D3"/>
<ellipse cx="219.294" cy="64.2763" rx="11.8576" ry="10" fill="#D3D3D3"/>
<ellipse cx="150.148" cy="64.2763" rx="11.8576" ry="10" fill="#D3D3D3"/>
<ellipse cx="81.003" cy="64.2763" rx="11.8576" ry="10" fill="#D3D3D3"/>
<ellipse cx="11.8576" cy="64.2763" rx="11.8576" ry="10" fill="#D3D3D3"/>
<ellipse cx="11.8576" cy="118.553" rx="11.8576" ry="10" fill="#D3D3D3"/>
<ellipse cx="81.003" cy="118.553" rx="11.8576" ry="10" fill="#D3D3D3"/>
<ellipse cx="150.148" cy="118.553" rx="11.8576" ry="10" fill="#D3D3D3"/>
<ellipse cx="219.294" cy="118.553" rx="11.8576" ry="10" fill="#D3D3D3"/>
<ellipse cx="219.294" cy="172.827" rx="11.8576" ry="10" fill="#D3D3D3"/>
<ellipse cx="150.148" cy="172.827" rx="11.8576" ry="10" fill="#D3D3D3"/>
<ellipse cx="81.003" cy="172.827" rx="11.8576" ry="10" fill="#D3D3D3"/>
<ellipse cx="11.8576" cy="172.827" rx="11.8576" ry="10" fill="#D3D3D3"/>
<ellipse cx="283.282" cy="10" rx="11.8576" ry="10" fill="#D3D3D3"/>
<ellipse cx="352.427" cy="10" rx="11.8576" ry="10" fill="#D3D3D3"/>
<ellipse cx="421.573" cy="10" rx="11.8576" ry="10" fill="#D3D3D3"/>
<ellipse cx="490.718" cy="10" rx="11.8576" ry="10" fill="#D3D3D3"/>
<ellipse cx="490.718" cy="64.2763" rx="11.8576" ry="10" fill="#D3D3D3"/>
<ellipse cx="421.573" cy="64.2763" rx="11.8576" ry="10" fill="#D3D3D3"/>
<ellipse cx="352.427" cy="64.2763" rx="11.8576" ry="10" fill="#D3D3D3"/>
<ellipse cx="283.282" cy="64.2763" rx="11.8576" ry="10" fill="#D3D3D3"/>
<ellipse cx="283.282" cy="118.553" rx="11.8576" ry="10" fill="#D3D3D3"/>
<ellipse cx="352.427" cy="118.553" rx="11.8576" ry="10" fill="#D3D3D3"/>
<ellipse cx="421.573" cy="118.553" rx="11.8576" ry="10" fill="#D3D3D3"/>
<ellipse cx="490.718" cy="118.553" rx="11.8576" ry="10" fill="#D3D3D3"/>
<ellipse cx="490.718" cy="172.827" rx="11.8576" ry="10" fill="#D3D3D3"/>
<ellipse cx="421.573" cy="172.827" rx="11.8576" ry="10" fill="#D3D3D3"/>
<ellipse cx="352.427" cy="172.827" rx="11.8576" ry="10" fill="#D3D3D3"/>
<ellipse cx="283.282" cy="172.827" rx="11.8576" ry="10" fill="#D3D3D3"/>
<ellipse cx="546.224" cy="10" rx="11.8576" ry="10" fill="#D3D3D3"/>
<ellipse cx="615.37" cy="10" rx="11.8576" ry="10" fill="#D3D3D3"/>
<ellipse cx="684.515" cy="10" rx="11.8576" ry="10" fill="#D3D3D3"/>
<ellipse cx="753.661" cy="10" rx="11.8576" ry="10" fill="#D3D3D3"/>
<ellipse cx="753.661" cy="64.2763" rx="11.8576" ry="10" fill="#D3D3D3"/>
<ellipse cx="684.515" cy="64.2763" rx="11.8576" ry="10" fill="#D3D3D3"/>
<ellipse cx="615.37" cy="64.2763" rx="11.8576" ry="10" fill="#D3D3D3"/>
<ellipse cx="546.224" cy="64.2763" rx="11.8576" ry="10" fill="#D3D3D3"/>
<ellipse cx="546.224" cy="118.553" rx="11.8576" ry="10" fill="#D3D3D3"/>
<ellipse cx="615.37" cy="118.553" rx="11.8576" ry="10" fill="#D3D3D3"/>
<ellipse cx="684.515" cy="118.553" rx="11.8576" ry="10" fill="#D3D3D3"/>
<ellipse cx="753.661" cy="118.553" rx="11.8576" ry="10" fill="#D3D3D3"/>
<ellipse cx="753.661" cy="172.827" rx="11.8576" ry="10" fill="#D3D3D3"/>
<ellipse cx="684.515" cy="172.827" rx="11.8576" ry="10" fill="#D3D3D3"/>
<ellipse cx="615.37" cy="172.827" rx="11.8576" ry="10" fill="#D3D3D3"/>
<ellipse cx="546.224" cy="172.827" rx="11.8576" ry="10" fill="#D3D3D3"/>
<ellipse cx="552.586" cy="228.92" rx="11.8576" ry="10" fill="#D3D3D3"/>
<ellipse cx="621.731" cy="228.92" rx="11.8576" ry="10" fill="#D3D3D3"/>
<ellipse cx="690.877" cy="228.92" rx="11.8576" ry="10" fill="#D3D3D3"/>
<ellipse cx="760.022" cy="228.92" rx="11.8576" ry="10" fill="#D3D3D3"/>
<ellipse cx="760.022" cy="283.194" rx="11.8576" ry="10" fill="#D3D3D3"/>
<ellipse cx="690.877" cy="283.194" rx="11.8576" ry="10" fill="#D3D3D3"/>
<ellipse cx="621.731" cy="283.194" rx="11.8576" ry="10" fill="#D3D3D3"/>
<ellipse cx="552.586" cy="283.194" rx="11.8576" ry="10" fill="#D3D3D3"/>
<ellipse cx="552.586" cy="337.469" rx="11.8576" ry="10" fill="#D3D3D3"/>
<ellipse cx="621.731" cy="337.469" rx="11.8576" ry="10" fill="#D3D3D3"/>
<ellipse cx="690.877" cy="337.469" rx="11.8576" ry="10" fill="#D3D3D3"/>
<ellipse cx="760.022" cy="337.469" rx="11.8576" ry="10" fill="#D3D3D3"/>
<ellipse cx="760.022" cy="391.744" rx="11.8576" ry="10" fill="#D3D3D3"/>
<ellipse cx="690.877" cy="391.744" rx="11.8576" ry="10" fill="#D3D3D3"/>
<ellipse cx="621.731" cy="391.744" rx="11.8576" ry="10" fill="#D3D3D3"/>
<ellipse cx="552.586" cy="391.744" rx="11.8576" ry="10" fill="#D3D3D3"/>
<ellipse cx="11.8576" cy="223.512" rx="11.8576" ry="10" fill="#D3D3D3"/>
<ellipse cx="81.003" cy="223.512" rx="11.8576" ry="10" fill="#D3D3D3"/>
<ellipse cx="150.148" cy="223.512" rx="11.8576" ry="10" fill="#D3D3D3"/>
<ellipse cx="219.294" cy="223.512" rx="11.8576" ry="10" fill="#D3D3D3"/>
<ellipse cx="219.294" cy="277.79" rx="11.8576" ry="10" fill="#D3D3D3"/>
<ellipse cx="150.148" cy="277.79" rx="11.8576" ry="10" fill="#D3D3D3"/>
<ellipse cx="81.003" cy="277.79" rx="11.8576" ry="10" fill="#D3D3D3"/>
<ellipse cx="11.8576" cy="277.79" rx="11.8576" ry="10" fill="#D3D3D3"/>
<ellipse cx="11.8576" cy="332.065" rx="11.8576" ry="10" fill="#D3D3D3"/>
<ellipse cx="81.003" cy="332.065" rx="11.8576" ry="10" fill="#D3D3D3"/>
<ellipse cx="150.148" cy="332.065" rx="11.8576" ry="10" fill="#D3D3D3"/>
<ellipse cx="219.294" cy="332.065" rx="11.8576" ry="10" fill="#D3D3D3"/>
<ellipse cx="219.294" cy="386.34" rx="11.8576" ry="10" fill="#D3D3D3"/>
<ellipse cx="150.148" cy="386.34" rx="11.8576" ry="10" fill="#D3D3D3"/>
<ellipse cx="81.003" cy="386.34" rx="11.8576" ry="10" fill="#D3D3D3"/>
<ellipse cx="11.8576" cy="386.34" rx="11.8576" ry="10" fill="#D3D3D3"/>
<ellipse cx="11.8576" cy="437.025" rx="11.8576" ry="10" fill="#D3D3D3"/>
<ellipse cx="81.003" cy="437.025" rx="11.8576" ry="10" fill="#D3D3D3"/>
<ellipse cx="150.148" cy="437.025" rx="11.8576" ry="10" fill="#D3D3D3"/>
<ellipse cx="219.294" cy="437.025" rx="11.8576" ry="10" fill="#D3D3D3"/>
<ellipse cx="219.294" cy="491.306" rx="11.8576" ry="10" fill="#D3D3D3"/>
<ellipse cx="150.148" cy="491.306" rx="11.8576" ry="10" fill="#D3D3D3"/>
<ellipse cx="81.003" cy="491.306" rx="11.8576" ry="10" fill="#D3D3D3"/>
<ellipse cx="11.8576" cy="491.306" rx="11.8576" ry="10" fill="#D3D3D3"/>
<ellipse cx="11.8576" cy="545.58" rx="11.8576" ry="10" fill="#D3D3D3"/>
<ellipse cx="81.003" cy="545.58" rx="11.8576" ry="10" fill="#D3D3D3"/>
<ellipse cx="150.148" cy="545.58" rx="11.8576" ry="10" fill="#D3D3D3"/>
<ellipse cx="219.294" cy="545.58" rx="11.8576" ry="10" fill="#D3D3D3"/>
<ellipse cx="219.294" cy="599.855" rx="11.8576" ry="10" fill="#D3D3D3"/>
<ellipse cx="150.148" cy="599.855" rx="11.8576" ry="10" fill="#D3D3D3"/>
<ellipse cx="81.003" cy="599.855" rx="11.8576" ry="10" fill="#D3D3D3"/>
<ellipse cx="11.8576" cy="599.855" rx="11.8576" ry="10" fill="#D3D3D3"/>
<ellipse cx="283.282" cy="437.025" rx="11.8576" ry="10" fill="#D3D3D3"/>
<ellipse cx="352.427" cy="437.025" rx="11.8576" ry="10" fill="#D3D3D3"/>
<ellipse cx="421.573" cy="437.025" rx="11.8576" ry="10" fill="#D3D3D3"/>
<ellipse cx="490.718" cy="437.025" rx="11.8576" ry="10" fill="#D3D3D3"/>
<ellipse cx="490.718" cy="491.306" rx="11.8576" ry="10" fill="#D3D3D3"/>
<ellipse cx="421.573" cy="491.306" rx="11.8576" ry="10" fill="#D3D3D3"/>
<ellipse cx="352.427" cy="491.306" rx="11.8576" ry="10" fill="#D3D3D3"/>
<ellipse cx="283.282" cy="491.306" rx="11.8576" ry="10" fill="#D3D3D3"/>
<ellipse cx="283.282" cy="545.58" rx="11.8576" ry="10" fill="#D3D3D3"/>
<ellipse cx="352.427" cy="545.58" rx="11.8576" ry="10" fill="#D3D3D3"/>
<ellipse cx="421.573" cy="545.58" rx="11.8576" ry="10" fill="#D3D3D3"/>
<ellipse cx="490.718" cy="545.58" rx="11.8576" ry="10" fill="#D3D3D3"/>
<ellipse cx="490.718" cy="599.855" rx="11.8576" ry="10" fill="#D3D3D3"/>
<ellipse cx="421.573" cy="599.855" rx="11.8576" ry="10" fill="#D3D3D3"/>
<ellipse cx="352.427" cy="599.855" rx="11.8576" ry="10" fill="#D3D3D3"/>
<ellipse cx="283.282" cy="599.855" rx="11.8576" ry="10" fill="#D3D3D3"/>
<ellipse cx="554.706" cy="437.025" rx="11.8576" ry="10" fill="#D3D3D3"/>
<ellipse cx="623.852" cy="437.025" rx="11.8576" ry="10" fill="#D3D3D3"/>
<ellipse cx="692.997" cy="437.025" rx="11.8576" ry="10" fill="#D3D3D3"/>
<ellipse cx="762.142" cy="437.025" rx="11.8576" ry="10" fill="#D3D3D3"/>
<ellipse cx="762.142" cy="491.306" rx="11.8576" ry="10" fill="#D3D3D3"/>
<ellipse cx="692.997" cy="491.306" rx="11.8576" ry="10" fill="#D3D3D3"/>
<ellipse cx="623.852" cy="491.306" rx="11.8576" ry="10" fill="#D3D3D3"/>
<ellipse cx="554.706" cy="491.306" rx="11.8576" ry="10" fill="#D3D3D3"/>
<ellipse cx="554.706" cy="545.58" rx="11.8576" ry="10" fill="#D3D3D3"/>
<ellipse cx="623.852" cy="545.58" rx="11.8576" ry="10" fill="#D3D3D3"/>
<ellipse cx="692.997" cy="545.58" rx="11.8576" ry="10" fill="#D3D3D3"/>
<ellipse cx="762.142" cy="545.58" rx="11.8576" ry="10" fill="#D3D3D3"/>
<ellipse cx="762.142" cy="599.855" rx="11.8576" ry="10" fill="#D3D3D3"/>
<ellipse cx="692.997" cy="599.855" rx="11.8576" ry="10" fill="#D3D3D3"/>
<ellipse cx="623.852" cy="599.855" rx="11.8576" ry="10" fill="#D3D3D3"/>
<ellipse cx="554.706" cy="599.855" rx="11.8576" ry="10" fill="#D3D3D3"/>
<ellipse cx="283.282" cy="223.512" rx="11.8576" ry="10" fill="#D3D3D3"/>
<ellipse cx="352.427" cy="223.512" rx="11.8576" ry="10" fill="#D3D3D3"/>
<ellipse cx="421.573" cy="223.512" rx="11.8576" ry="10" fill="#D3D3D3"/>
<ellipse cx="490.718" cy="223.512" rx="11.8576" ry="10" fill="#D3D3D3"/>
<ellipse cx="490.718" cy="277.79" rx="11.8576" ry="10" fill="#D3D3D3"/>
<ellipse cx="421.573" cy="277.79" rx="11.8576" ry="10" fill="#D3D3D3"/>
<ellipse cx="352.427" cy="277.79" rx="11.8576" ry="10" fill="#D3D3D3"/>
<ellipse cx="283.282" cy="277.79" rx="11.8576" ry="10" fill="#D3D3D3"/>
<ellipse cx="283.282" cy="332.065" rx="11.8576" ry="10" fill="#D3D3D3"/>
<ellipse cx="352.427" cy="332.065" rx="11.8576" ry="10" fill="#D3D3D3"/>
<ellipse cx="421.573" cy="332.065" rx="11.8576" ry="10" fill="#D3D3D3"/>
<ellipse cx="490.718" cy="332.065" rx="11.8576" ry="10" fill="#D3D3D3"/>
<ellipse cx="490.718" cy="386.34" rx="11.8576" ry="10" fill="#D3D3D3"/>
<ellipse cx="421.573" cy="386.34" rx="11.8576" ry="10" fill="#D3D3D3"/>
<ellipse cx="352.427" cy="386.34" rx="11.8576" ry="10" fill="#D3D3D3"/>
<ellipse cx="283.282" cy="386.34" rx="11.8576" ry="10" fill="#D3D3D3"/>
</svg>
